<mxfile host="app.diagrams.net" modified="2023-04-11T11:48:27.291Z" agent="Mozilla/5.0 (X11; Linux x86_64; rv:109.0) Gecko/20100101 Firefox/111.0" version="21.1.2" etag="xZ5yGeBPehjkSMTHHpaZ" type="github">
  <diagram name="Page-1" id="JiS4Qa5W9OuOm3nx_BKb">
    <mxGraphModel>
      <root>
        <mxCell id="0" />
        <mxCell id="1" parent="0" />
      </root>
    </mxGraphModel>
  </diagram>
</mxfile>
